<svg width="197" height="193" viewBox="0 0 197 193" fill="none" xmlns="http://www.w3.org/2000/svg">
<path d="M110.686 115.632H84.2764V162.18H110.686V115.632Z" fill="#EBECEF"/>
<path d="M110.686 115.632H84.2764V162.18H110.686V115.632Z" stroke="black" stroke-width="1.03301" stroke-linecap="round" stroke-linejoin="round"/>
<path d="M176.41 187.231C176.41 190.008 164.021 192.251 148.75 192.251C133.478 192.251 121.089 190.008 121.089 187.231C121.089 184.455 133.478 182.212 148.75 182.212C164.021 182.212 176.41 184.455 176.41 187.231Z" fill="black"/>
<path d="M176.41 187.231C176.41 190.008 164.021 192.251 148.75 192.251C133.478 192.251 121.089 190.008 121.089 187.231C121.089 184.455 133.478 182.212 148.75 182.212C164.021 182.212 176.41 184.455 176.41 187.231Z" stroke="black" stroke-width="1.03301" stroke-linecap="round" stroke-linejoin="round"/>
<path d="M116.681 180.442C116.681 183.219 94.7721 192.235 94.7721 192.235C79.5003 192.235 71.0786 189.992 71.0786 187.216C71.0786 184.439 83.467 182.212 98.7389 182.212C114.011 182.212 116.681 177.665 116.681 180.442Z" fill="black"/>
<path d="M116.681 180.442C116.681 183.219 94.7721 192.235 94.7721 192.235C79.5003 192.235 71.0786 189.992 71.0786 187.216C71.0786 184.439 83.467 182.212 98.7389 182.212C114.011 182.212 116.681 177.665 116.681 180.442Z" stroke="black" stroke-width="1.03301" stroke-linecap="round" stroke-linejoin="round"/>
<path d="M193.558 181.48C193.558 183.265 155.493 184.714 108.548 184.714C61.6038 184.714 23.5386 183.265 23.5386 181.48C23.5386 179.695 61.5886 178.245 108.548 178.245C155.508 178.245 193.558 179.695 193.558 181.48Z" fill="black"/>
<path d="M193.558 181.48C193.558 183.265 155.493 184.714 108.548 184.714C61.6038 184.714 23.5386 183.265 23.5386 181.48C23.5386 179.695 61.5886 178.245 108.548 178.245C155.508 178.245 193.558 179.695 193.558 181.48Z" stroke="black" stroke-width="1.03301" stroke-linecap="round" stroke-linejoin="round"/>
<path d="M80.751 157.481H30.3584C30.3584 157.481 30.1753 180.595 30.1753 180.686C30.1753 181.861 40.8549 182.822 54.0366 182.822C67.2184 182.822 77.3335 181.922 77.8522 180.778H80.7662V157.481H80.751Z" fill="#EBECEF"/>
<path d="M80.751 157.481H30.3584C30.3584 157.481 30.1753 180.595 30.1753 180.686C30.1753 181.861 40.8549 182.822 54.0366 182.822C67.2184 182.822 77.3335 181.922 77.8522 180.778H80.7662V157.481H80.751Z" stroke="black" stroke-width="1.03301" stroke-linecap="round" stroke-linejoin="round"/>
<path d="M39.1318 169.076C39.1318 169.076 55.7463 171.166 63.4356 169.289L65.48 173.943C65.48 173.943 45.6464 175.941 39.1318 173.348V169.076Z" fill="white"/>
<path d="M39.1318 169.076C39.1318 169.076 55.7463 171.166 63.4356 169.289L65.48 173.943C65.48 173.943 45.6464 175.941 39.1318 173.348V169.076Z" stroke="black" stroke-width="1.03301" stroke-linecap="round" stroke-linejoin="round"/>
<path d="M77.898 157.603C77.898 158.777 67.2184 159.739 54.0366 159.739C40.8549 159.739 30.1753 158.777 30.1753 157.603C30.1753 156.428 40.8549 155.467 54.0366 155.467C67.2184 155.467 77.898 156.428 77.898 157.603Z" fill="#EBECEF"/>
<path d="M77.898 157.603C77.898 158.777 67.2184 159.739 54.0366 159.739C40.8549 159.739 30.1753 158.777 30.1753 157.603C30.1753 156.428 40.8549 155.467 54.0366 155.467C67.2184 155.467 77.898 156.428 77.898 157.603Z" stroke="black" stroke-width="1.03301" stroke-linecap="round" stroke-linejoin="round"/>
<path d="M41.8022 159.205L46.3182 122.467L53.8855 121.033L62.9784 159.174C62.9784 159.174 52.0852 160.334 41.8022 159.205Z" fill="#F56900"/>
<mask id="mask0_79_3748" style="mask-type:luminance" maskUnits="userSpaceOnUse" x="41" y="121" width="22" height="39">
<path d="M46.3172 122.467L41.8013 159.205C52.0842 160.319 62.9775 159.174 62.9775 159.174L53.8845 121.048L46.3172 122.482V122.467Z" fill="white"/>
</mask>
<g mask="url(#mask0_79_3748)">
<path d="M43.7861 142.133C44.0302 143.414 47.524 143.826 51.5975 143.048C55.671 142.27 58.7681 140.592 58.524 139.31L56.9068 132.185C57.1052 133.238 54.5726 134.611 51.2466 135.252C47.9207 135.893 45.0524 135.557 44.8541 134.504" fill="white"/>
<path d="M43.7861 142.133C44.0302 143.414 47.524 143.826 51.5975 143.048C55.671 142.27 58.7681 140.592 58.524 139.31L56.9068 132.185C57.1052 133.238 54.5726 134.611 51.2466 135.252C47.9207 135.893 45.0524 135.557 44.8541 134.504" stroke="black" stroke-width="1.03301" stroke-linecap="round" stroke-linejoin="round"/>
<path d="M40.5664 164.774C40.9783 166.91 46.7911 167.596 53.5498 166.299C60.3085 165.002 65.4652 162.226 65.0533 160.09L62.3834 148.251C62.719 150.005 58.5082 152.278 52.97 153.331C47.4319 154.384 42.6871 153.835 42.3514 152.08" fill="white"/>
<path d="M40.5664 164.774C40.9783 166.91 46.7911 167.596 53.5498 166.299C60.3085 165.002 65.4652 162.226 65.0533 160.09L62.3834 148.251C62.719 150.005 58.5082 152.278 52.97 153.331C47.4319 154.384 42.6871 153.835 42.3514 152.08" stroke="black" stroke-width="1.03301" stroke-linecap="round" stroke-linejoin="round"/>
</g>
<path d="M41.8022 159.205L46.3182 122.467L53.8855 121.033L62.9784 159.174C62.9784 159.174 52.0852 160.334 41.8022 159.205Z" stroke="black" stroke-width="1.03301" stroke-linecap="round" stroke-linejoin="round"/>
<path d="M138.726 157.481H189.119C189.119 157.481 189.302 180.595 189.302 180.686C189.302 181.861 178.622 182.822 165.441 182.822C152.259 182.822 142.144 181.922 141.625 180.778H138.711V157.481H138.726Z" fill="#EBECEF"/>
<path d="M138.726 157.481H189.119C189.119 157.481 189.302 180.595 189.302 180.686C189.302 181.861 178.622 182.822 165.441 182.822C152.259 182.822 142.144 181.922 141.625 180.778H138.711V157.481H138.726Z" stroke="black" stroke-width="1.03301" stroke-linecap="round" stroke-linejoin="round"/>
<path d="M141.595 157.603C141.595 158.777 152.275 159.739 165.457 159.739C178.638 159.739 189.318 158.777 189.318 157.603C189.318 156.428 178.638 155.467 165.457 155.467C152.275 155.467 141.595 156.428 141.595 157.603Z" fill="#EBECEF"/>
<path d="M141.595 157.603C141.595 158.777 152.275 159.739 165.457 159.739C178.638 159.739 189.318 158.777 189.318 157.603C189.318 156.428 178.638 155.467 165.457 155.467C152.275 155.467 141.595 156.428 141.595 157.603Z" stroke="black" stroke-width="1.03301" stroke-linecap="round" stroke-linejoin="round"/>
<path d="M130.548 167.932C130.548 167.932 165.913 161.737 161.702 147.137C161.198 145.382 157.094 134.55 156.454 132.963C152.136 122.268 123.469 148.586 123.469 148.586L127.1 159.8L130.548 167.916V167.932Z" fill="#EBECEF"/>
<path d="M130.548 167.932C130.548 167.932 165.913 161.737 161.702 147.137C161.198 145.382 157.094 134.55 156.454 132.963C152.136 122.268 123.469 148.586 123.469 148.586L127.1 159.8L130.548 167.916V167.932Z" stroke="black" stroke-width="1.03301" stroke-linecap="round" stroke-linejoin="round"/>
<path d="M124.523 151.47C124.523 151.47 159.888 145.275 155.677 130.675C151.466 116.074 117.444 132.139 117.444 132.139L121.075 143.353L124.523 151.47Z" fill="#EBECEF"/>
<path d="M124.523 151.47C124.523 151.47 159.888 145.275 155.677 130.675C151.466 116.074 117.444 132.139 117.444 132.139L121.075 143.353L124.523 151.47Z" stroke="black" stroke-width="1.03301" stroke-linecap="round" stroke-linejoin="round"/>
<path d="M176.634 117.66L153.792 160.531L157.521 162.518L180.364 119.647L176.634 117.66Z" fill="#EBECEF"/>
<path d="M176.634 117.66L153.792 160.531L157.521 162.518L180.364 119.647L176.634 117.66Z" stroke="black" stroke-width="1.03301" stroke-linecap="round" stroke-linejoin="round"/>
<path d="M179.63 124.389L171.071 124.542L168.432 122.284L182.239 95.905L193.483 97.2018L196.122 99.4598L179.63 124.389Z" fill="#EBECEF"/>
<path d="M179.63 124.389L171.071 124.542L168.432 122.284L182.239 95.905L193.483 97.2018L196.122 99.4598L179.63 124.389Z" stroke="black" stroke-width="1.03301" stroke-linecap="round" stroke-linejoin="round"/>
<path d="M182.909 125.411L171.07 124.542L184.877 98.1631L196.121 99.4599L182.909 125.411Z" fill="#EBECEF"/>
<path d="M182.909 125.411L171.07 124.542L184.877 98.1631L196.121 99.4599L182.909 125.411Z" stroke="black" stroke-width="1.03301" stroke-linecap="round" stroke-linejoin="round"/>
<path d="M177.387 119.538C176.654 120.941 177.249 122.116 178.714 122.177C180.179 122.238 181.964 121.155 182.696 119.766C183.428 118.378 182.833 117.188 181.369 117.127C179.904 117.066 178.119 118.149 177.387 119.538Z" fill="#BCBCBC"/>
<path d="M177.387 119.538C176.654 120.941 177.249 122.116 178.714 122.177C180.179 122.238 181.964 121.155 182.696 119.766C183.428 118.378 182.833 117.188 181.369 117.127C179.904 117.066 178.119 118.149 177.387 119.538Z" stroke="black" stroke-width="1.03301" stroke-linecap="round" stroke-linejoin="round"/>
<path d="M181.217 112.23C180.484 113.633 181.079 114.808 182.544 114.869C184.009 114.93 185.794 113.847 186.526 112.458C187.258 111.07 186.663 109.88 185.199 109.819C183.734 109.758 181.949 110.841 181.217 112.23Z" fill="#BCBCBC"/>
<path d="M181.217 112.23C180.484 113.633 181.079 114.808 182.544 114.869C184.009 114.93 185.794 113.847 186.526 112.458C187.258 111.07 186.663 109.88 185.199 109.819C183.734 109.758 181.949 110.841 181.217 112.23Z" stroke="black" stroke-width="1.03301" stroke-linecap="round" stroke-linejoin="round"/>
<path d="M185.198 104.601C184.465 106.005 185.06 107.18 186.525 107.241C187.99 107.302 189.775 106.218 190.507 104.83C191.239 103.442 190.644 102.252 189.18 102.191C187.715 102.13 185.93 103.213 185.198 104.601Z" fill="#D70036"/>
<path d="M185.198 104.601C184.465 106.005 185.06 107.18 186.525 107.241C187.99 107.302 189.775 106.218 190.507 104.83C191.239 103.442 190.644 102.252 189.18 102.191C187.715 102.13 185.93 103.213 185.198 104.601Z" stroke="black" stroke-width="1.03301" stroke-linecap="round" stroke-linejoin="round"/>
<path d="M182.238 95.905L184.878 98.163" stroke="black" stroke-width="1.03301" stroke-linecap="round" stroke-linejoin="round"/>
<path d="M110.685 163.248C110.685 163.248 114.331 141.354 121.99 136.503C121.99 136.503 134.546 129.469 144.844 135.618C152.64 140.271 150.504 162.592 143.12 171.883L124.614 166.757C124.614 166.757 130.518 145.168 128.352 139.691C128.352 139.691 130.533 142.849 126.079 160.868C122.569 175.056 110.7 163.232 110.7 163.232" fill="#EBECEF"/>
<path d="M110.685 163.248C110.685 163.248 114.331 141.354 121.99 136.503C121.99 136.503 134.546 129.469 144.844 135.618C152.64 140.271 150.504 162.592 143.12 171.883L124.614 166.757C124.614 166.757 130.518 145.168 128.352 139.691C128.352 139.691 130.533 142.849 126.079 160.868C122.569 175.056 110.7 163.232 110.7 163.232L110.685 163.248Z" stroke="black" stroke-width="1.03301" stroke-linecap="round" stroke-linejoin="round"/>
<path d="M117.383 141.965C119.809 136.808 125.332 132.475 128.337 139.707Z" fill="#EBECEF"/>
<path d="M117.383 141.965C119.809 136.808 125.332 132.475 128.337 139.707" stroke="black" stroke-width="1.03301" stroke-linecap="round" stroke-linejoin="round"/>
<path d="M92.6363 141.385L59.8193 141.019L81.7889 70.2892L114.606 70.6401L92.6363 141.385Z" fill="#EBECEF"/>
<path d="M92.6363 141.385L59.8193 141.019L81.7889 70.2892L114.606 70.6401L92.6363 141.385Z" stroke="black" stroke-width="1.03301" stroke-linecap="round" stroke-linejoin="round"/>
<path d="M125.454 66.3682L92.5298 66.002L92.6061 16.8147L125.545 17.1656L125.454 66.3682Z" fill="#EBECEF"/>
<path d="M125.454 66.3682L92.5298 66.002L92.6061 16.8147L125.545 17.1656L125.454 66.3682Z" stroke="black" stroke-width="1.03301" stroke-linecap="round" stroke-linejoin="round"/>
<path d="M46.3014 102.496C49.3222 98.6054 69.5678 95.4015 74.0685 93.8301C80.0643 91.7399 97.9603 80.2974 102.934 80.0838C106.672 79.9313 117.58 80.7856 117.58 80.7856C120.174 81.4112 122.768 82.0367 125.361 82.6775C129.297 83.6386 133.63 85.6067 137.734 85.2864C142.266 84.9355 144.34 79.321 142.098 75.6747C140.725 73.4472 138.146 72.2572 135.629 71.5401C130.411 70.045 125.3 68.3515 120.159 66.5817L105.772 63.9271L111.737 52.0727C111.737 52.0727 99.8522 32.7426 99.2419 32.0255C98.6164 31.3084 91.3542 28.4402 91.3542 28.4402L72.6344 31.3542L65.7231 32.4069L54.8909 39.9437L49.6121 47.7551L43.7078 54.8494C43.7078 54.8494 42.8229 59.045 36.644 64.2017C30.4651 69.3584 37.5899 65.2391 28.8021 70.8231C31.7161 69.4347 23.2334 74.3474 28.8021 70.8231" fill="#FFCCAD"/>
<path d="M46.3014 102.496C49.3222 98.6054 69.5678 95.4015 74.0685 93.8301C80.0643 91.7399 97.9603 80.2974 102.934 80.0838C106.672 79.9313 117.58 80.7856 117.58 80.7856C120.174 81.4112 122.768 82.0367 125.361 82.6775C129.297 83.6386 133.63 85.6067 137.734 85.2864C142.266 84.9355 144.34 79.321 142.098 75.6747C140.725 73.4472 138.146 72.2572 135.629 71.5401C130.411 70.045 125.3 68.3515 120.159 66.5817L105.772 63.9271L111.737 52.0727C111.737 52.0727 99.8522 32.7426 99.2419 32.0255C98.6164 31.3084 91.3542 28.4402 91.3542 28.4402L72.6344 31.3542L65.7231 32.4069L54.8909 39.9437L49.6121 47.7551L43.7078 54.8494C43.7078 54.8494 42.8229 59.045 36.644 64.2017C30.4651 69.3584 37.5899 65.2391 28.8021 70.8231M28.8021 70.8231C23.2334 74.3474 31.7161 69.4347 28.8021 70.8231Z" stroke="black" stroke-width="1.03301" stroke-linecap="round" stroke-linejoin="round"/>
<path d="M100.173 65.4833L123.272 60.9216C128.825 60.4792 134.409 61.1504 139.703 62.905C144.906 64.629 149.162 66.0783 149.94 66.2309C160.162 68.2295 161.459 55.7038 153.983 53.4001L136.484 46.9923C130.015 44.6733 123.562 44.3071 116.757 45.3293L102.645 47.4195" fill="#FFCCAD"/>
<path d="M100.173 65.4833L123.272 60.9216C128.825 60.4792 134.409 61.1504 139.703 62.905C144.906 64.629 149.162 66.0783 149.94 66.2309C160.162 68.2295 161.459 55.7038 153.983 53.4001L136.484 46.9923C130.015 44.6733 123.562 44.3071 116.757 45.3293L102.645 47.4195" stroke="black" stroke-width="1.03301" stroke-linecap="round" stroke-linejoin="round"/>
<path d="M98.9062 52.973C102.858 51.9203 106.824 50.8523 110.776 49.7996L119.762 47.4043C120.937 47.0839 122.127 46.7788 123.302 46.4584C125.163 45.9549 126.261 45.8634 128.199 46.1533C129.13 46.2906 130.06 46.4279 130.991 46.5652C136.849 47.4348 142.754 48.3044 148.75 48.2892C152.015 48.2892 156.622 47.862 157.827 44.2614C158.666 41.7746 157.782 38.708 155.752 37.1213C152.594 34.6498 147.804 33.9785 143.806 33.3682C138.863 32.6206 131.052 30.5763 126.124 31.2018C122.554 31.6595 118.984 32.1324 115.414 32.5901L99.5623 38.5097" fill="#FFCCAD"/>
<path d="M98.9062 52.973C102.858 51.9203 106.824 50.8523 110.776 49.7996L119.762 47.4043C120.937 47.0839 122.127 46.7788 123.302 46.4584C125.163 45.9549 126.261 45.8634 128.199 46.1533C129.13 46.2906 130.06 46.4279 130.991 46.5652C136.849 47.4348 142.754 48.3044 148.75 48.2892C152.015 48.2892 156.622 47.862 157.827 44.2614C158.666 41.7746 157.782 38.708 155.752 37.1213C152.594 34.6498 147.804 33.9785 143.806 33.3682C138.863 32.6206 131.052 30.5763 126.124 31.2018C122.554 31.6595 118.984 32.1324 115.414 32.5901L99.5623 38.5097" stroke="black" stroke-width="1.03301" stroke-linecap="round" stroke-linejoin="round"/>
<path d="M95.2911 36.816L115.079 31.4304C117.734 30.7286 130.961 32.0407 134.134 32.239C138.361 32.4984 144.585 33.1087 147.026 28.73C148.659 25.8007 147.789 22.0629 145.363 19.8354C141.305 16.1128 134.958 16.5857 129.878 15.7619L107.771 15.2279L73.7792 25.2057L46.9734 44.0934C46.9734 44.0934 38.0788 70.3501 37.377 70.9756" fill="#FFCCAD"/>
<path d="M95.2911 36.816L115.079 31.4304C117.734 30.7286 130.961 32.0407 134.134 32.239C138.361 32.4984 144.585 33.1087 147.026 28.73C148.659 25.8007 147.789 22.0629 145.363 19.8354C141.305 16.1128 134.958 16.5857 129.878 15.7619L107.771 15.2279L73.7792 25.2057L46.9734 44.0934C46.9734 44.0934 38.0788 70.3501 37.377 70.9756" stroke="black" stroke-width="1.03301" stroke-linecap="round" stroke-linejoin="round"/>
<path d="M144.478 52.0118C142.693 68.55 127.329 81.8538 110.257 81.6707C93.1849 81.4876 80.7203 67.8787 82.5206 51.3405C84.3056 34.8024 99.6537 21.4986 116.741 21.6817C133.829 21.8648 146.278 35.4737 144.493 52.0118" fill="black"/>
<path d="M144.478 52.0118C142.693 68.55 127.329 81.8538 110.257 81.6707C93.1849 81.4876 80.7203 67.8787 82.5206 51.3405C84.3056 34.8024 99.6537 21.4986 116.741 21.6817C133.829 21.8648 146.278 35.4737 144.493 52.0118H144.478Z" stroke="black" stroke-width="1.03301" stroke-linecap="round" stroke-linejoin="round"/>
<path d="M132.456 29.5845L132.425 25.0075V23.9548L132.395 19.8813C132.364 16.7689 130.823 14.0227 128.55 13.0615C128.077 12.8632 94.665 12.909 94.665 12.909L97.991 17.7148L97.4417 29.3098L99.4556 29.3556L99.3336 29.1878L132.273 29.6455H132.395L132.471 29.5997L132.456 29.5845Z" fill="#EBECEF"/>
<path d="M132.456 29.5845L132.425 25.0075V23.9548L132.395 19.8813C132.364 16.7689 130.823 14.0227 128.55 13.0615C128.077 12.8632 94.665 12.909 94.665 12.909L97.991 17.7148L97.4417 29.3098L99.4556 29.3556L99.3336 29.1878L132.273 29.6455H132.395L132.471 29.5997L132.456 29.5845Z" stroke="black" stroke-width="1.03301" stroke-linecap="round" stroke-linejoin="round"/>
<path d="M117.032 15.7468H113.065V24.8398H117.032V15.7468Z" fill="white"/>
<path d="M117.032 15.7468H113.065V24.8398H117.032V15.7468Z" stroke="black" stroke-width="1.03301" stroke-linecap="round" stroke-linejoin="round"/>
<path d="M99.4259 25.7551L99.3496 18.2794C99.3191 15.8841 97.7782 13.7634 95.5049 13.0311C94.0403 12.5429 92.5146 13.794 92.5146 16.83V19.683L96.7865 18.2794" fill="#EBECEF"/>
<path d="M99.4259 25.7551L99.3496 18.2794C99.3191 15.8841 97.7782 13.7634 95.5049 13.0311C94.0403 12.5429 92.5146 13.794 92.5146 16.83V19.683L96.7865 18.2794" stroke="black" stroke-width="1.03301" stroke-linecap="round" stroke-linejoin="round"/>
<path d="M65.8301 43.4527C67.6609 40.4777 69.4917 37.5026 71.3225 34.5429C72.4057 32.7883 73.4737 31.0491 74.5569 29.2946C76.3267 26.4263 79.1339 24.3819 81.2698 21.7578C85.1603 16.952 88.2421 9.76611 84.9314 3.87705C82.7039 -0.0744121 78.4168 -0.410058 74.9841 2.18357C70.1172 5.8299 66.3031 10.8036 61.7261 14.8008L41.0229 31.461C39.2836 32.8646 38.0478 34.8022 37.4376 37.0602L28.0853 58.5873L15.5596 61.425C15.5596 61.425 29.916 99.3987 38.1089 104.723L62.2143 96.6678" fill="#FFCCAD"/>
<path d="M65.8301 43.4527C67.6609 40.4777 69.4917 37.5026 71.3225 34.5429C72.4057 32.7883 73.4737 31.0491 74.5569 29.2946C76.3267 26.4263 79.1339 24.3819 81.2698 21.7578C85.1603 16.952 88.2421 9.76611 84.9314 3.87705C82.7039 -0.0744121 78.4168 -0.410058 74.9841 2.18357C70.1172 5.8299 66.3031 10.8036 61.7261 14.8008L41.0229 31.461C39.2836 32.8646 38.0478 34.8022 37.4376 37.0602L28.0853 58.5873L15.5596 61.425C15.5596 61.425 29.916 99.3987 38.1089 104.723L62.2143 96.6678" stroke="black" stroke-width="1.03301" stroke-linecap="round" stroke-linejoin="round"/>
<path d="M99.395 76.3309L118.664 71.6166" stroke="black" stroke-width="1.03301" stroke-linecap="round" stroke-linejoin="round"/>
<path d="M0.516602 50.898C2.54573 49.6622 4.95628 48.6095 7.47362 48.4112C10.2656 48.1976 13.0728 49.0367 15.8342 48.4569C18.611 47.8619 20.5485 46.0159 22.6997 44.536C25.0035 42.9493 27.4903 41.5457 29.8398 39.9895C32.0368 38.5401 35.2559 39.1351 36.629 41.2405C45.8135 55.2766 52.2365 70.1061 53.2435 86.0492C53.5944 91.6027 53.335 97.4459 49.9938 102.237C46.5153 107.225 40.2296 110.292 34.2185 113.13L0.516602 50.898Z" fill="#00BB53"/>
<path d="M0.516602 50.898C2.54573 49.6622 4.95628 48.6095 7.47362 48.4112C10.2656 48.1976 13.0728 49.0367 15.8342 48.4569C18.611 47.8619 20.5485 46.0159 22.6997 44.536C25.0035 42.9493 27.4903 41.5457 29.8398 39.9895C32.0368 38.5401 35.2559 39.1351 36.629 41.2405C45.8135 55.2766 52.2365 70.1061 53.2435 86.0492C53.5944 91.6027 53.335 97.4459 49.9938 102.237C46.5153 107.225 40.2296 110.292 34.2185 113.13L0.516602 50.898Z" stroke="black" stroke-width="1.03301" stroke-linecap="round" stroke-linejoin="round"/>
<path d="M22.7314 67.6193C20.9921 61.1963 18.2917 54.9411 14.7217 49.0825" stroke="black" stroke-width="1.03301" stroke-linecap="round" stroke-linejoin="round"/>
<path d="M148.247 53.6137C148.049 71.7081 133.235 86.2019 115.14 86.0188C97.0458 85.8204 82.552 71.0063 82.7351 52.9119C82.9334 34.8176 97.7476 20.3238 115.842 20.5068C133.936 20.7052 148.43 35.5194 148.247 53.6137Z" fill="white"/>
<path d="M148.247 53.6137C148.049 71.7081 133.235 86.2019 115.14 86.0188C97.0458 85.8204 82.552 71.0063 82.7351 52.9119C82.9334 34.8176 97.7476 20.3238 115.842 20.5068C133.936 20.7052 148.43 35.5194 148.247 53.6137Z" stroke="black" stroke-width="1.03301" stroke-linecap="round" stroke-linejoin="round"/>
<path d="M147.94 49.4062L147.862 56.668L153.034 56.7239L153.112 49.4622L147.94 49.4062Z" fill="#F56900"/>
<path d="M147.94 49.4062L147.862 56.668L153.034 56.7239L153.112 49.4622L147.94 49.4062Z" stroke="black" stroke-width="1.03301" stroke-linecap="round" stroke-linejoin="round"/>
<path d="M131.496 144.07L98.5571 143.719L98.6944 80.267C98.6944 80.267 100.556 84.3252 115.126 86.0187C127.652 87.4681 131.618 80.9993 131.618 80.9993L131.481 144.085L131.496 144.07Z" fill="#EBECEF"/>
<path d="M131.496 144.07L98.5571 143.719L98.6944 80.267C98.6944 80.267 100.556 84.3252 115.126 86.0187C127.652 87.4681 131.618 80.9993 131.618 80.9993L131.481 144.085L131.496 144.07Z" stroke="black" stroke-width="1.03301" stroke-linecap="round" stroke-linejoin="round"/>
<path d="M134.118 27.0825C133.615 26.4875 132.638 24.6262 132.547 19.1338C132.547 18.4167 134.362 17.8217 133.63 17.8217L133.416 18.5998C132.684 18.5998 133.493 19.9119 133.493 20.6442L132.928 25.328C128.092 22.536 119.411 19.7593 113.43 19.6983C107.434 19.6373 101.805 21.1477 96.9073 23.8328L96.9683 18.7829C96.9683 18.0506 96.3885 17.4403 95.6562 17.4403C94.9391 17.4403 94.3441 18.0048 94.3136 18.7219C94.1 24.6567 92.91 26.3349 92.4676 26.7621C92.4065 26.8079 92.3455 26.8536 92.2845 26.8994C84.5799 32.9715 79.591 42.3544 79.4842 52.9272C79.3774 63.4695 84.1222 72.9134 91.6437 79.1533C92.0251 79.4737 92.3455 79.8704 92.5439 80.3281C93.0168 81.4113 93.5355 83.4862 93.5813 87.3919C93.5813 88.109 94.1763 88.704 94.8934 88.704C95.6257 88.704 97.2887 88.704 97.2887 88.704L96.2817 82.3877C101.118 85.1797 106.717 86.8122 112.698 86.8732C118.678 86.9342 124.308 85.4391 129.206 82.7386L132.821 82.6624C132.821 83.3947 132.333 86.7054 133.065 86.7206L133.249 87.636C133.981 87.636 132.974 85.8662 133.004 85.1339C133.081 82.8454 132.12 83.2879 132.394 82.0979C132.623 81.0909 133.187 80.1755 133.996 79.5348C141.609 73.4626 146.537 64.1256 146.644 53.629C146.766 42.9036 141.838 33.3072 134.088 27.0672M115.475 84.2491C99.4398 84.0812 83.7866 68.9924 83.9544 52.9577C84.1222 36.923 100.676 21.4986 116.71 21.6664C132.745 21.8342 146.812 37.5943 146.644 53.629C146.476 69.6637 131.509 84.4169 115.475 84.2491Z" fill="#F56900"/>
<path d="M134.118 27.0825C133.615 26.4875 132.638 24.6262 132.547 19.1338C132.547 18.4167 134.362 17.8217 133.63 17.8217L133.416 18.5998C132.684 18.5998 133.493 19.9119 133.493 20.6442L132.928 25.328C128.092 22.536 119.411 19.7593 113.43 19.6983C107.434 19.6373 101.805 21.1477 96.9073 23.8328L96.9683 18.7829C96.9683 18.0506 96.3885 17.4403 95.6562 17.4403C94.9391 17.4403 94.3441 18.0048 94.3136 18.7219C94.1 24.6567 92.91 26.3349 92.4676 26.7621C92.4065 26.8079 92.3455 26.8536 92.2845 26.8994C84.5799 32.9715 79.591 42.3544 79.4842 52.9272C79.3774 63.4695 84.1222 72.9134 91.6437 79.1533C92.0251 79.4737 92.3455 79.8704 92.5439 80.3281C93.0168 81.4113 93.5355 83.4862 93.5813 87.3919C93.5813 88.109 94.1763 88.704 94.8934 88.704C95.6257 88.704 97.2887 88.704 97.2887 88.704L96.2817 82.3877C101.118 85.1797 106.717 86.8122 112.698 86.8732C118.678 86.9342 124.308 85.4391 129.206 82.7386L132.821 82.6624C132.821 83.3947 132.333 86.7054 133.065 86.7206L133.249 87.636C133.981 87.636 132.974 85.8662 133.004 85.1339C133.081 82.8454 132.12 83.2879 132.394 82.0979C132.623 81.0909 133.187 80.1755 133.996 79.5348C141.609 73.4626 146.537 64.1256 146.644 53.629C146.766 42.9036 141.838 33.3072 134.088 27.0672L134.118 27.0825ZM115.505 84.2643C99.4704 84.0965 83.8171 69.0077 83.9849 52.973C84.1527 36.9383 100.706 21.5138 116.741 21.6816C132.776 21.8495 146.842 37.6096 146.674 53.6443C146.507 69.679 131.54 84.4321 115.505 84.2643Z" stroke="black" stroke-width="1.03301" stroke-linecap="round" stroke-linejoin="round"/>
<path d="M117.429 86.7357H113.462V103.472H117.429V86.7357Z" fill="white"/>
<path d="M117.429 86.7357H113.462V103.472H117.429V86.7357Z" stroke="black" stroke-width="1.03301" stroke-linecap="round" stroke-linejoin="round"/>
<path d="M136.514 27.0825C136.011 26.4875 135.034 24.6262 134.943 19.1338C134.943 18.4167 134.348 17.8217 133.631 17.8217C132.898 17.8217 132.288 18.4015 132.288 19.1338L132.227 24.1685C127.391 21.3765 121.807 19.7593 115.826 19.683C109.83 19.622 104.201 21.1324 99.2881 23.8176L99.3491 18.7676C99.3491 18.0353 98.7694 17.425 98.0371 17.425C97.32 17.425 96.725 17.9895 96.6945 18.7219C96.4809 24.6567 95.2909 26.3349 94.8484 26.7621C94.7874 26.8079 94.7264 26.8536 94.6654 26.8994C86.9608 32.9715 81.9871 42.3544 81.865 52.9272C81.7583 63.4543 86.5031 72.9134 94.0246 79.1533C94.406 79.4737 94.7264 79.8704 94.9247 80.3281C95.3977 81.4113 95.9164 83.4862 95.9622 87.3919C95.9622 88.109 96.5572 88.704 97.2742 88.704C98.0065 88.704 98.6168 88.1242 98.6168 87.3919L98.6778 82.3877C103.514 85.1797 109.113 86.8121 115.094 86.8732C121.075 86.9342 126.704 85.4391 131.602 82.7386L131.556 87.1936C131.556 87.9259 132.136 88.5362 132.868 88.5362C133.585 88.5362 134.18 87.9717 134.211 87.2393C134.287 84.9508 134.516 83.3031 134.79 82.1131C135.019 81.0909 135.584 80.1908 136.392 79.55C144.005 73.4779 148.933 64.1408 149.04 53.6443C149.147 42.9189 144.234 33.3224 136.484 27.0825M115.124 82.3572C99.0898 82.1894 86.1827 68.9924 86.3505 52.9577C86.5183 36.923 99.7153 24.0159 115.75 24.1837C131.785 24.3516 144.692 37.5485 144.524 53.5832C144.356 69.6179 131.159 82.525 115.124 82.3572Z" fill="#F56900"/>
<path d="M136.514 27.0825C136.011 26.4875 135.034 24.6262 134.943 19.1338C134.943 18.4167 134.348 17.8217 133.631 17.8217C132.898 17.8217 132.288 18.4015 132.288 19.1338L132.227 24.1685C127.391 21.3765 121.807 19.7593 115.826 19.683C109.83 19.622 104.201 21.1324 99.2881 23.8176L99.3491 18.7676C99.3491 18.0353 98.7694 17.425 98.0371 17.425C97.32 17.425 96.725 17.9895 96.6945 18.7219C96.4809 24.6567 95.2909 26.3349 94.8484 26.7621C94.7874 26.8079 94.7264 26.8536 94.6654 26.8994C86.9608 32.9715 81.9871 42.3544 81.865 52.9272C81.7583 63.4543 86.5031 72.9134 94.0246 79.1533C94.406 79.4737 94.7264 79.8704 94.9247 80.3281C95.3977 81.4113 95.9164 83.4862 95.9622 87.3919C95.9622 88.109 96.5572 88.704 97.2742 88.704C98.0065 88.704 98.6168 88.1242 98.6168 87.3919L98.6778 82.3877C103.514 85.1797 109.113 86.8121 115.094 86.8732C121.075 86.9342 126.704 85.4391 131.602 82.7386L131.556 87.1936C131.556 87.9259 132.136 88.5362 132.868 88.5362C133.585 88.5362 134.18 87.9717 134.211 87.2393C134.287 84.9508 134.516 83.3031 134.79 82.1131C135.019 81.0909 135.584 80.1908 136.392 79.55C144.005 73.4779 148.933 64.1408 149.04 53.6443C149.147 42.9189 144.234 33.3224 136.484 27.0825H136.514ZM115.155 82.3572C99.1203 82.1894 86.2132 68.9924 86.381 52.9577C86.5488 36.923 99.7458 24.0159 115.781 24.1837C131.815 24.3516 144.722 37.5485 144.554 53.5832C144.387 69.6179 131.19 82.525 115.155 82.3572Z" stroke="black" stroke-width="1.03301" stroke-linecap="round" stroke-linejoin="round"/>
<path d="M136.514 65.5595L114.59 55.4597L114.621 52.4541L137.674 63.0269L136.514 65.5595Z" fill="#EBECEF"/>
<path d="M136.514 65.5595L114.59 55.4597L114.621 52.4541L137.674 63.0269L136.514 65.5595Z" stroke="black" stroke-width="1.03301" stroke-linecap="round" stroke-linejoin="round"/>
<path d="M116.177 50.6233L116.635 27.4943L113.629 27.4637L113.171 50.5928C111.768 51.1725 110.761 52.5456 110.746 54.1476C110.715 56.2988 112.439 58.0533 114.59 58.0838C116.741 58.1143 118.496 56.3903 118.526 54.2391C118.542 52.6219 117.58 51.2336 116.177 50.6233Z" fill="#EBECEF"/>
<path d="M116.177 50.6233L116.635 27.4943L113.629 27.4637L113.171 50.5928C111.768 51.1725 110.761 52.5456 110.746 54.1476C110.715 56.2988 112.439 58.0533 114.59 58.0838C116.741 58.1143 118.496 56.3903 118.526 54.2391C118.542 52.6219 117.58 51.2336 116.177 50.6233Z" stroke="black" stroke-width="1.03301" stroke-linecap="round" stroke-linejoin="round"/>
<path d="M116.574 54.0866C116.574 55.1546 115.689 56.009 114.621 55.9937C113.553 55.9937 112.699 55.1088 112.699 54.0409C112.699 52.9729 113.584 52.1185 114.652 52.1185C115.72 52.1185 116.574 53.0034 116.559 54.0714" fill="black"/>
<path d="M116.574 54.0866C116.574 55.1546 115.689 56.009 114.621 55.9937C113.553 55.9937 112.699 55.1088 112.699 54.0409C112.699 52.9729 113.584 52.1185 114.652 52.1185C115.72 52.1185 116.574 53.0034 116.559 54.0714L116.574 54.0866Z" stroke="black" stroke-width="1.03301" stroke-linecap="round" stroke-linejoin="round"/>
<path d="M117.429 117.478H113.462V136.625H117.429V117.478Z" fill="white"/>
<path d="M117.429 117.478H113.462V136.625H117.429V117.478Z" stroke="black" stroke-width="1.03301" stroke-linecap="round" stroke-linejoin="round"/>
<path d="M81.8954 133.101H77.9287L82.7803 113.954H86.747L81.8954 133.101Z" fill="white"/>
<path d="M81.8954 133.101H77.9287L82.7803 113.954H86.747L81.8954 133.101Z" stroke="black" stroke-width="1.03301" stroke-linecap="round" stroke-linejoin="round"/>
<path d="M60.8109 137.83C60.8109 137.83 44.471 175.697 72.9246 182.547C101.378 189.398 141.061 184.302 141.061 184.302V176.75L93.5058 172.463C90.0731 172.158 87.6015 169.03 88.105 165.612C89.1729 158.289 91.0342 146.557 92.6514 141.4L95.0467 133.116" fill="#EBECEF"/>
<path d="M60.8109 137.83C60.8109 137.83 44.471 175.697 72.9246 182.547C101.378 189.398 141.061 184.302 141.061 184.302V176.75L93.5058 172.463C90.0731 172.158 87.6015 169.03 88.105 165.612C89.1729 158.289 91.0342 146.557 92.6514 141.4L95.0467 133.116" stroke="black" stroke-width="1.03301" stroke-linecap="round" stroke-linejoin="round"/>
<path d="M73.0627 151.592C72.8796 151.943 70.2249 168.664 76.2666 173.775L80.1112 170.815C80.1112 170.815 74.1764 166.33 76.587 150.585L73.0627 151.592Z" fill="white"/>
<path d="M73.0627 151.592C72.8796 151.943 70.2249 168.664 76.2666 173.775L80.1112 170.815C80.1112 170.815 74.1764 166.33 76.587 150.585L73.0627 151.592Z" stroke="black" stroke-width="1.03301" stroke-linecap="round" stroke-linejoin="round"/>
<path d="M118.756 181.51C118.756 181.51 100.418 194.005 91.6297 191.839C91.6297 191.839 77.8682 187.643 75.1831 175.957C73.1539 167.108 90.7448 153.209 102.569 152.126L111.662 169.045C111.662 169.045 91.9806 179.694 89.5243 185.05C89.5243 185.05 90.2871 181.296 106.398 172.051C119.076 164.773 118.756 181.525 118.756 181.525" fill="#EBECEF"/>
<path d="M118.756 181.51C118.756 181.51 100.418 194.005 91.6297 191.839C91.6297 191.839 77.8682 187.643 75.1831 175.957C73.1539 167.108 90.7448 153.209 102.569 152.126L111.662 169.045C111.662 169.045 91.9806 179.694 89.5243 185.05C89.5243 185.05 90.2871 181.296 106.398 172.051C119.076 164.773 118.756 181.525 118.756 181.525V181.51Z" stroke="black" stroke-width="1.03301" stroke-linecap="round" stroke-linejoin="round"/>
<path d="M98.7394 191.396C93.3386 193.212 86.3815 192.22 89.5244 185.049Z" fill="#EBECEF"/>
<path d="M98.7394 191.396C93.3386 193.212 86.3815 192.22 89.5244 185.049" stroke="black" stroke-width="1.03301" stroke-linecap="round" stroke-linejoin="round"/>
<path d="M96.6951 165.704C96.6951 165.704 84.8712 170.189 85.2069 179.725L81.4842 177.986C81.1486 168.45 93.537 163.278 93.537 163.278L96.6951 165.704Z" fill="white"/>
<path d="M96.6951 165.704C96.6951 165.704 84.8712 170.189 85.2069 179.725L81.4842 177.986C81.1486 168.45 93.537 163.278 93.537 163.278L96.6951 165.704Z" stroke="black" stroke-width="1.03301" stroke-linecap="round" stroke-linejoin="round"/>
<path d="M165.426 160.547C165.426 160.547 165.898 152.492 121.471 169.259C121.471 169.259 144.829 180.991 147.102 180.991C149.376 180.991 168.065 178.199 168.065 178.199L170.689 170.434L165.426 160.547Z" fill="#EBECEF"/>
<path d="M165.426 160.547C165.426 160.547 165.898 152.492 121.471 169.259C121.471 169.259 144.829 180.991 147.102 180.991C149.376 180.991 168.065 178.199 168.065 178.199L170.689 170.434L165.426 160.547Z" stroke="black" stroke-width="1.03301" stroke-linecap="round" stroke-linejoin="round"/>
<path d="M98.5558 140.393C98.5558 140.393 96.7861 164.453 116.177 178.596C126.369 186.026 140.771 191.717 153.236 191.518C161.642 191.381 170.552 186.941 175.648 179.481C178.241 175.697 173.512 171.151 170.674 167.062C168.111 163.385 165.41 160.547 165.41 160.547C165.41 160.547 166.417 164.834 157.584 167.87C150.688 170.235 131.434 164.392 131.48 141.385" fill="#EBECEF"/>
<path d="M98.5558 140.393C98.5558 140.393 96.7861 164.453 116.177 178.596C126.369 186.026 140.771 191.717 153.236 191.518C161.642 191.381 170.552 186.941 175.648 179.481C178.241 175.697 173.512 171.151 170.674 167.062C168.111 163.385 165.41 160.547 165.41 160.547C165.41 160.547 166.417 164.834 157.584 167.87C150.688 170.235 131.434 164.392 131.48 141.385" stroke="black" stroke-width="1.03301" stroke-linecap="round" stroke-linejoin="round"/>
<path d="M115.491 152.492C115.491 152.492 116.742 167.962 126.766 171.883L129.604 170.144C129.604 170.144 120.541 162.622 119.61 152.492H115.506H115.491Z" fill="white"/>
<path d="M115.491 152.492C115.491 152.492 116.742 167.962 126.766 171.883L129.604 170.144C129.604 170.144 120.541 162.622 119.61 152.492H115.506H115.491Z" stroke="black" stroke-width="1.03301" stroke-linecap="round" stroke-linejoin="round"/>
<path d="M148.979 179.725C148.979 179.725 161.581 180.869 165.441 172.158L168.035 175.362C164.16 184.073 150.749 183.295 150.749 183.295L148.979 179.725Z" fill="white"/>
<path d="M148.979 179.725C148.979 179.725 161.581 180.869 165.441 172.158L168.035 175.362C164.16 184.073 150.749 183.295 150.749 183.295L148.979 179.725Z" stroke="black" stroke-width="1.03301" stroke-linecap="round" stroke-linejoin="round"/>
<path d="M189.241 170.906L183.321 172.112V167.87L189.241 166.665V170.906Z" fill="white"/>
<path d="M189.241 170.906L183.321 172.112V167.87L189.241 166.665V170.906Z" stroke="black" stroke-width="1.03301" stroke-linecap="round" stroke-linejoin="round"/>
<path d="M53.8847 121.033C54.0068 121.704 52.4354 122.589 50.3452 122.985C48.2703 123.382 46.47 123.153 46.348 122.482C46.2259 121.811 47.7973 120.926 49.8875 120.529C51.9624 120.133 53.7627 120.361 53.8847 121.033Z" fill="#F56900"/>
<path d="M53.8847 121.033C54.0068 121.704 52.4354 122.589 50.3452 122.985C48.2703 123.382 46.47 123.153 46.348 122.482C46.2259 121.811 47.7973 120.926 49.8875 120.529C51.9624 120.133 53.7627 120.361 53.8847 121.033Z" stroke="black" stroke-width="1.03301" stroke-linecap="round" stroke-linejoin="round"/>
</svg>
