<svg width="958" height="1260" viewBox="0 0 958 1260" fill="none" xmlns="http://www.w3.org/2000/svg">
<path d="M62.5333 1141.46C-46.3053 1184.62 -158.195 1219.99 -257.644 1236.67" stroke="#00BB53" stroke-width="24"/>
<path d="M364.494 999.478C277.233 1047.31 171.41 1098.28 62.5342 1141.45" stroke="#00BB53" stroke-width="24"/>
<path d="M644.249 814.184C556.296 883.278 462.606 945.671 364.5 999.453" stroke="#6161FF" stroke-width="24"/>
<path d="M879.012 579.246C815.713 670.221 731.035 745.981 644.246 814.161" stroke="#6161FF" stroke-width="24"/>
<path d="M903.078 275.75C929.159 320.492 945.281 365.059 945.341 406.698C945.259 459.967 921.457 518.292 879.013 579.295" stroke="#F56900" stroke-width="24"/>
<path d="M678.684 29.4633C763.989 100.933 846.601 178.845 903.076 275.726" stroke="#F56900" stroke-width="24"/>
<path d="M404.584 -163.397C495.72 -110.208 593.11 -42.2376 678.686 29.4584" stroke="#001A73" stroke-width="24"/>
</svg>
