<svg width="88" height="88" viewBox="0 0 88 88" fill="none" xmlns="http://www.w3.org/2000/svg">
<path d="M29.9892 39.3958C26.5742 39.3958 23.8273 41.2898 23.8273 45.5548C23.8273 49.7244 26.5742 51.7138 29.9892 51.7138C33.3923 51.7138 36.1452 49.7244 36.1452 45.5548C36.1452 41.2898 33.3923 39.3958 29.9892 39.3958ZM29.9892 48.7849C28.4621 48.7849 27.3198 47.6247 27.3198 45.5548C27.3198 43.303 28.4621 42.3187 29.9892 42.3187C31.5073 42.3187 32.6526 43.303 32.6526 45.5548C32.6526 47.6247 31.5073 48.7849 29.9892 48.7849ZM52.1823 39.5032C52.1823 39.5658 52.233 39.6166 52.2957 39.6166H54.8875C55.0933 39.6166 55.2603 39.7866 55.2603 39.9864V42.2293C55.2603 42.2949 55.2096 42.3456 55.147 42.3456H52.2957C52.233 42.3456 52.1823 42.3963 52.1823 42.4589V46.8134C52.1823 48.4837 52.8146 48.9788 53.8705 48.9788C54.3656 48.9788 55.144 48.6745 55.2573 48.6745C55.32 48.6745 55.3737 48.7252 55.3737 48.7879V50.9353C55.3737 51.0964 55.2812 51.2097 55.1798 51.2634C54.7085 51.5169 53.9182 51.6899 52.749 51.6899C50.706 51.6899 48.8091 50.6609 48.8091 47.3771V39.8045C48.8091 39.1334 49.0715 38.4951 49.4861 38.0418C50.0379 37.4333 51.8125 36.294 52.0422 36.294C52.1406 36.294 52.1823 36.3238 52.1823 36.4163V39.5032ZM10.9755 39.9983C10.9755 39.7866 11.1455 39.6195 11.3572 39.6195H15.8489C20.2601 39.6195 22.5448 42.268 22.5448 45.695C22.5448 49.1249 19.9887 51.499 15.7774 51.499H14.465C14.4024 51.499 14.3487 51.5497 14.3487 51.6153V57.1718C14.3487 57.2643 14.31 57.2941 14.2085 57.2941C13.9789 57.2941 12.2043 56.1548 11.6525 55.5463C11.2379 55.09 10.9755 54.4517 10.9755 53.7836V39.9983ZM19.2133 45.522C19.2133 44.0635 18.2708 42.6975 15.7803 42.6975H14.4591C14.3964 42.6975 14.3457 42.7482 14.3457 42.8138V48.2958C14.3457 48.3584 14.3964 48.4121 14.4591 48.4121H15.846C18.8136 48.4121 19.2133 46.3511 19.2133 45.522ZM47.0732 47.8364C47.0732 50.3388 45.2748 51.7138 41.7673 51.7138C39.76 51.7138 37.6394 51.0099 37.6215 51.0039C37.4635 50.9443 37.3591 50.8011 37.3591 50.6371V48.3047C37.3591 48.2272 37.4247 48.1675 37.5052 48.1675C37.5171 48.1675 37.55 48.1735 37.5529 48.1765C38.3016 48.418 40.7294 49.0205 42.0208 49.0205C42.7843 49.0205 43.184 48.9072 43.4405 48.6507C43.6165 48.4747 43.697 48.2868 43.697 48.0601C43.697 47.2966 42.7396 47.0848 41.812 46.882C41.6957 46.8582 41.7464 46.8701 41.4332 46.7955C39.4021 46.3153 37.2607 45.8202 37.2607 43.2046C37.2607 42.0443 37.7468 41.081 38.6565 40.4129C39.5632 39.7448 40.8725 39.3958 42.4413 39.3958C43.8521 39.3958 45.5253 39.8611 46.086 40.0401C46.262 40.0967 46.3634 40.2518 46.3634 40.4099V42.7363C46.3574 42.8437 46.2441 42.8944 46.1665 42.8645C44.5589 42.2621 43.0885 42.0503 42.0327 42.0503C41.1946 42.0503 40.6518 42.4142 40.6518 42.9779C40.6518 43.6281 41.4452 43.804 42.4503 44.0307C42.5726 44.0576 43.1213 44.1828 43.2645 44.2127C44.0877 44.3946 44.9377 44.5795 45.6356 45.0358C46.602 45.6681 47.0732 46.5838 47.0732 47.8364ZM65.2578 51.4573C65.219 51.4573 65.1862 51.4245 65.1862 51.3857V44.3081C65.1862 42.7363 64.6524 42.0652 63.3997 42.0652C62.9523 42.0652 62.4125 42.2322 61.8756 42.5365C61.3417 42.8466 60.9242 43.1031 60.775 43.1926C60.7333 43.2195 60.6886 43.291 60.6886 43.3477V51.3887C60.6886 51.4274 60.6557 51.4602 60.617 51.4602H57.4614C57.4227 51.4602 57.3869 51.4274 57.3869 51.3887V40.0013C57.3869 39.8164 57.539 39.6643 57.7269 39.6643H60.62C60.6587 39.6643 60.6945 39.6971 60.6945 39.7358V40.6306C60.6945 40.6843 60.7393 40.729 60.7929 40.729C60.8138 40.729 60.8407 40.7171 60.8496 40.7111L60.9451 40.6396C61.297 40.3682 61.8398 40.0609 62.2037 39.9208C62.9941 39.6195 63.8471 39.4436 64.539 39.4436C67.1189 39.4436 68.4819 40.9259 68.4819 43.7265V51.3827C68.4819 51.4245 68.4491 51.4543 68.4074 51.4543H65.2578V51.4573ZM71.0857 51.4573C71.0469 51.4573 71.0141 51.4245 71.0141 51.3857V33.9467C71.0141 33.8841 71.0261 33.8662 71.1125 33.8662C71.3094 33.8662 73.0691 34.9727 73.6388 35.5991C74.0623 36.0643 74.3039 36.6966 74.3039 37.3349V51.3857C74.3039 51.4245 74.2711 51.4573 74.2323 51.4573H71.0857ZM29.9862 21.1456C29.9266 21.1456 29.8699 21.1635 29.8013 21.2053C29.2704 21.6049 28.8021 22.0672 28.3965 22.5862C28.2772 22.7204 28.2772 22.8755 28.4025 23.0366C28.7872 23.5347 29.2287 23.9791 29.7118 24.3578C29.8013 24.4294 29.8908 24.4622 29.9832 24.4622C30.0757 24.4622 30.1652 24.4264 30.2546 24.3549C30.7378 23.9761 31.1792 23.5317 31.564 23.0366C31.6893 22.8755 31.6893 22.7204 31.564 22.5773C31.1673 22.0643 30.699 21.602 30.1801 21.2113C30.1055 21.1635 30.0489 21.1456 29.9862 21.1456ZM29.9862 25.4196C29.7327 25.4196 29.4643 25.4256 29.1869 25.4375C29.0885 25.4375 28.999 25.4733 28.9304 25.5449C28.832 25.6433 28.7932 25.8014 28.7932 25.9058C28.8021 26.4516 28.8379 29.3327 28.8618 31.167C28.8737 32.0528 28.8797 32.6941 28.8827 32.7149C28.8827 32.8462 28.9781 33.1206 29.2734 33.1206H30.702C30.9138 33.1206 31.0599 32.9714 31.0898 32.7328C31.0898 32.7269 31.0898 32.7209 31.0898 32.7149C31.0898 32.6702 31.1196 30.2215 31.1763 25.9953V25.9117C31.1792 25.8312 31.1524 25.6582 31.042 25.5479C30.9734 25.4763 30.884 25.4435 30.7796 25.4435C30.5111 25.4286 30.2427 25.4196 29.9862 25.4196ZM33.61 25.8103C33.2819 25.8103 33.0135 25.9923 32.8733 26.3054C32.4617 27.2211 32.1635 28.0562 31.8742 29.0941C31.8414 29.2164 31.8533 29.3178 31.91 29.3924C31.9487 29.4431 32.0263 29.5027 32.1814 29.5027H33.2968C33.5504 29.5027 33.6428 29.3685 33.6786 29.2582C33.8605 28.6378 33.9918 28.2769 34.2244 27.7639C34.2274 27.7579 34.2453 27.7251 34.3139 27.7251C34.3407 27.7251 34.3676 27.7281 34.3944 27.7371L34.9611 27.925C35.0267 27.9488 35.0685 28.0055 35.0894 28.0502C35.1311 28.1367 35.1371 28.253 35.1073 28.3395C35.1013 28.3574 33.962 31.5428 33.6219 32.6046C33.5712 32.7686 33.5772 32.8969 33.6458 32.9923C33.7084 33.0788 33.8158 33.1235 33.9649 33.1235H35.3459C35.5725 33.1235 35.7217 33.0341 35.7873 32.8521C35.838 32.7149 35.9096 32.5151 35.9931 32.2795L36.0259 32.19C36.4404 31.0328 37.0698 29.279 37.204 28.781C37.4307 27.9369 37.4933 27.0123 36.2555 26.553C35.8618 26.4068 35.489 26.2816 35.146 26.1772C34.7106 26.043 34.29 25.9446 33.9202 25.8581L33.8755 25.8461C33.7741 25.8193 33.6905 25.8103 33.61 25.8103ZM26.3624 25.8103C26.2819 25.8103 26.1984 25.8193 26.1179 25.8402L26.0612 25.8521C25.6914 25.9386 25.2738 26.037 24.8383 26.1712C24.4983 26.2756 24.1255 26.4009 23.7288 26.547C22.4881 27.0063 22.5537 27.9309 22.7804 28.775C22.9086 29.2552 23.4932 30.8986 23.9883 32.2735C24.0748 32.5091 24.1434 32.709 24.1941 32.8462C24.2597 33.0281 24.4089 33.1176 24.6355 33.1176H26.0165C26.2014 33.1176 26.2908 33.046 26.3356 32.9863C26.4042 32.8939 26.4101 32.7656 26.3594 32.6016C26.0224 31.5547 24.8831 28.3664 24.8711 28.3366C24.8413 28.2501 24.8473 28.1367 24.889 28.0472C24.9099 28.0025 24.9487 27.9458 25.0203 27.922L25.5899 27.7341C25.6108 27.7281 25.6377 27.7251 25.6645 27.7251C25.7212 27.7251 25.748 27.749 25.754 27.7639C25.9896 28.2888 26.1238 28.6527 26.2998 29.2582C26.3326 29.3715 26.4251 29.5027 26.6786 29.5027H27.797C27.9193 29.5027 28.0118 29.4669 28.0684 29.3924C28.1251 29.3178 28.137 29.2194 28.1012 29.0971C27.809 28.0532 27.5107 27.2181 27.1021 26.3054C27.0335 26.1563 26.8277 25.8103 26.3624 25.8103ZM35.0655 34.1794H24.9219C24.5669 34.1794 24.2657 34.4776 24.2657 34.8325V36.1091C24.2657 36.5087 24.4357 36.7026 24.7906 36.7026H35.1997C35.5517 36.7026 35.7217 36.5087 35.7217 36.1091V34.8325C35.7217 34.4776 35.4204 34.1794 35.0655 34.1794ZM83.9136 44.0486C83.9017 36.9263 70.522 24.5905 56.2654 16.7315C39.8197 7.66154 21.1042 2.31682 14.9393 5.71394C7.91239 9.59125 4.06192 28.945 4.05894 44.0486C4.06192 59.2745 7.6887 78.3807 14.9393 82.3803C21.5098 86.0011 39.4111 80.6564 56.2654 71.3658C70.7457 63.3815 83.9017 51.5169 83.9136 44.0486ZM19.8754 1.22222C30.2546 1.22222 46.8823 7.78382 57.9386 13.8801C64.2646 17.3667 71.4436 22.455 76.9971 27.6327C82.3269 32.5986 87.3555 38.7814 87.3644 44.0486C87.3555 49.0086 83.3291 54.8275 76.848 60.7688C71.3452 65.8093 64.199 70.7663 57.9416 74.2171C47.2611 80.1046 30.9824 86.9824 20.2512 86.9824C17.3343 86.9824 14.9423 86.4783 13.1348 85.4822C8.38363 82.8635 5.33845 75.8068 3.53998 68.8932C1.60728 61.4756 0.614097 52.5548 0.611115 44.0516C0.611115 35.7303 1.68483 26.7886 3.55489 19.5172C5.83355 10.662 9.14716 4.81917 13.1348 2.61805C14.808 1.69048 17.0778 1.22222 19.8754 1.22222Z" fill="#E75204"/>
</svg>
