<svg width="24" height="24" viewBox="0 0 24 24" fill="none" xmlns="http://www.w3.org/2000/svg">
<path d="M9.38219 16.2119C8.99166 15.8214 8.99166 15.1882 9.38219 14.7977L17.7693 6.41057C18.1598 6.02004 18.793 6.02004 19.1835 6.41057L20.1554 7.38244C20.5459 7.77296 20.5459 8.40613 20.1554 8.79665L11.7683 17.1838C11.3777 17.5743 10.7446 17.5743 10.3541 17.1838L9.38219 16.2119Z" fill="#E75204"/>
<path d="M12.3427 16.6091C12.7333 16.2186 12.7333 15.5855 12.3427 15.1949L7.39406 10.2463C7.00354 9.85574 6.37037 9.85574 5.97985 10.2463L5.00798 11.2181C4.61746 11.6087 4.61746 12.2418 5.00798 12.6323L9.95665 17.581C10.3472 17.9715 10.9803 17.9715 11.3709 17.581L12.3427 16.6091Z" fill="#E75204"/>
</svg>
